<?xml version="1.0" encoding="UTF-8" standalone="no"?>
<svg
   xmlns:dc="http://purl.org/dc/elements/1.1/"
   xmlns:cc="http://creativecommons.org/ns#"
   xmlns:rdf="http://www.w3.org/1999/02/22-rdf-syntax-ns#"
   xmlns:svg="http://www.w3.org/2000/svg"
   xmlns="http://www.w3.org/2000/svg"
   xmlns:sodipodi="http://sodipodi.sourceforge.net/DTD/sodipodi-0.dtd"
   xmlns:inkscape="http://www.inkscape.org/namespaces/inkscape"
   version="1.1"
   x="0px"
   y="0px"
   viewBox="0 0 79.976997 65.083"
   enable-background="new 0 0 90 90"
   xml:space="preserve"
   id="svg2"
   inkscape:version="0.91 r13725"
   sodipodi:docname="noun_76612_cc_mod.svg"
   width="79.976997"
   height="65.083"><metadata
     id="metadata34"><rdf:RDF><cc:Work
         rdf:about=""><dc:format>image/svg+xml</dc:format><dc:type
           rdf:resource="http://purl.org/dc/dcmitype/StillImage" /><dc:title></dc:title></cc:Work></rdf:RDF></metadata><defs
     id="defs32" /><sodipodi:namedview
     pagecolor="#ffffff"
     bordercolor="#666666"
     borderopacity="1"
     objecttolerance="10"
     gridtolerance="10"
     guidetolerance="10"
     inkscape:pageopacity="0"
     inkscape:pageshadow="2"
     inkscape:window-width="1276"
     inkscape:window-height="967"
     id="namedview30"
     showgrid="false"
     fit-margin-top="0"
     fit-margin-left="0"
     fit-margin-right="0"
     fit-margin-bottom="0"
     inkscape:zoom="2.0977778"
     inkscape:cx="40.703042"
     inkscape:cy="5.018678"
     inkscape:window-x="3840"
     inkscape:window-y="36"
     inkscape:window-maximized="0"
     inkscape:current-layer="svg2" /><path
     d="m 54.323,64.213 c 0,0 -0.07,-0.99 -0.195,-2.725 -0.118,-1.731 -0.287,-4.206 -0.489,-7.178 -0.098,-1.484 -0.204,-3.092 -0.314,-4.794 -0.108,-1.7 -0.222,-3.492 -0.341,-5.35 -0.112,-1.854 -0.255,-3.77 -0.357,-5.718 C 52.51,36.503 52.39,34.527 52.272,32.55 52.211,31.562 52.14,30.574 52.053,29.592 51.972,28.609 51.883,27.63 51.792,26.659 51.704,25.688 51.608,24.726 51.534,23.775 51.459,22.824 51.407,21.883 51.366,20.959 51.282,19.112 51.29,17.321 51.333,15.625 c 0.005,-0.848 0.042,-1.673 0.063,-2.472 0.037,-0.799 0.072,-1.571 0.107,-2.312 0.031,-0.74 0.077,-1.451 0.121,-2.127 0.051,-0.677 0.099,-1.319 0.145,-1.923 0.08,-1.202 0.189,-2.262 0.283,-3.135 0.068,-0.864 0.14,-1.553 0.202,-2.027 0.057,-0.473 0.097,-0.73 0.097,-0.73 l 0.485,-0.075 c -10e-4,0 0.102,0.235 0.272,0.684 0.177,0.448 0.415,1.11 0.698,1.967 0.255,0.854 0.535,1.893 0.824,3.096 0.287,1.203 0.542,2.557 0.799,4.044 0.257,1.486 0.462,3.094 0.654,4.801 0.193,1.706 0.32,3.505 0.383,5.37 0.023,0.933 0.022,1.879 0.007,2.84 -0.017,0.96 -0.053,1.932 -0.086,2.911 -0.087,1.958 -0.163,3.947 -0.199,5.933 -0.046,1.986 -0.091,3.971 -0.136,5.925 -0.046,1.953 -0.117,3.877 -0.19,5.737 -0.074,1.861 -0.133,3.657 -0.22,5.363 -0.082,1.704 -0.159,3.315 -0.23,4.805 -0.072,1.486 -0.157,2.851 -0.225,4.06 -0.066,1.207 -0.132,2.261 -0.189,3.128 -0.11,1.734 -0.185,2.727 -0.185,2.727 l -0.49,0 z"
     id="path4"
     inkscape:connector-curvature="0"
     style="fill:#00d8ff;fill-opacity:1" /><path
     d="m 26.717,0 c 0,0 0.089,1.015 0.246,2.792 0.079,0.889 0.167,1.967 0.266,3.205 0.097,1.237 0.218,2.633 0.329,4.157 0.112,1.523 0.235,3.174 0.364,4.92 0.132,1.746 0.249,3.587 0.378,5.492 0.127,1.905 0.267,3.873 0.374,5.874 0.114,2.001 0.229,4.033 0.344,6.066 0.107,2.033 0.268,4.066 0.43,6.066 0.074,1 0.159,1.994 0.215,2.974 0.056,0.981 0.093,1.951 0.113,2.907 0.032,1.907 -0.014,3.754 -0.111,5.504 -0.037,0.875 -0.102,1.727 -0.16,2.551 -0.074,0.825 -0.134,1.622 -0.218,2.386 -0.151,1.531 -0.333,2.932 -0.514,4.173 -0.047,0.312 -0.088,0.611 -0.136,0.901 -0.052,0.292 -0.104,0.573 -0.152,0.845 -0.104,0.541 -0.2,1.036 -0.297,1.482 -0.189,0.894 -0.356,1.59 -0.484,2.063 -0.122,0.475 -0.198,0.725 -0.198,0.725 l -0.489,-0.024 c 0,0 -0.069,-0.258 -0.175,-0.736 -0.113,-0.48 -0.256,-1.181 -0.417,-2.068 -0.083,-0.442 -0.163,-0.932 -0.25,-1.463 C 26.091,60.26 26,59.682 25.903,59.066 25.711,57.829 25.518,56.434 25.354,54.914 25.263,54.153 25.196,53.361 25.115,52.542 25.054,51.724 24.966,50.874 24.91,50.003 c -0.137,-1.744 -0.225,-3.585 -0.237,-5.488 -10e-4,-0.953 0.015,-1.921 0.048,-2.9 0.035,-0.979 0.083,-1.974 0.131,-2.976 0.103,-2.002 0.201,-4.036 0.249,-6.07 0.05,-2.034 0.1,-4.067 0.149,-6.069 0.04,-2.002 0.113,-3.973 0.174,-5.88 0.066,-1.908 0.113,-3.751 0.181,-5.5 0.064,-1.749 0.125,-3.402 0.181,-4.928 0.063,-1.526 0.119,-2.926 0.169,-4.166 0.049,-1.24 0.097,-2.321 0.14,-3.212 0.085,-1.782 0.134,-2.8 0.134,-2.8 L 26.717,0 Z"
     id="path6"
     inkscape:connector-curvature="0"
     style="fill:#00d8ff;fill-opacity:1" /><path
     d="m 0,22.677 c 0,0 1.219,-0.067 3.351,-0.186 1.066,-0.062 2.361,-0.13 3.847,-0.204 1.485,-0.076 3.161,-0.161 4.988,-0.253 1.828,-0.089 3.808,-0.184 5.901,-0.285 2.094,-0.096 4.303,-0.196 6.586,-0.301 2.285,-0.102 4.645,-0.219 7.042,-0.307 2.398,-0.097 4.833,-0.196 7.269,-0.294 2.437,-0.103 4.87,-0.243 7.266,-0.403 1.198,-0.073 2.386,-0.153 3.56,-0.213 1.174,-0.057 2.334,-0.101 3.475,-0.125 2.281,-0.042 4.486,-0.011 6.578,0.067 1.047,0.029 2.063,0.081 3.047,0.121 0.985,0.058 1.935,0.094 2.849,0.16 1.826,0.11 3.499,0.244 4.983,0.375 0.741,0.063 1.436,0.127 2.078,0.191 0.642,0.065 1.23,0.117 1.765,0.179 1.064,0.106 1.899,0.189 2.47,0.246 0.146,0.018 0.265,0.022 0.369,0.026 0.106,0.005 0.196,0.01 0.268,0.014 0.146,0.009 0.222,0.014 0.222,0.014 l 0.116,0.476 c 0,0 -0.074,0.031 -0.219,0.089 -0.072,0.03 -0.164,0.064 -0.273,0.106 -0.109,0.042 -0.239,0.091 -0.378,0.132 -0.281,0.088 -0.634,0.198 -1.046,0.31 -0.411,0.103 -0.887,0.229 -1.419,0.348 -0.531,0.119 -1.12,0.241 -1.763,0.369 -0.642,0.118 -1.336,0.25 -2.078,0.369 -0.372,0.063 -0.755,0.122 -1.149,0.18 -0.395,0.058 -0.802,0.125 -1.217,0.179 -0.833,0.11 -1.71,0.23 -2.624,0.331 -0.915,0.109 -1.868,0.199 -2.854,0.298 -0.986,0.08 -2.007,0.181 -3.055,0.245 -2.097,0.157 -4.31,0.26 -6.598,0.281 -1.145,0.006 -2.309,-0.003 -3.486,-0.035 -1.178,-0.033 -2.37,-0.084 -3.571,-0.134 -2.402,-0.111 -4.843,-0.207 -7.283,-0.273 -2.439,-0.066 -4.878,-0.133 -7.28,-0.199 -2.401,-0.06 -4.764,-0.156 -7.05,-0.24 C 22.402,24.242 20.192,24.167 18.096,24.072 16,23.979 14.019,23.891 12.191,23.811 10.363,23.731 8.687,23.639 7.201,23.566 5.715,23.493 4.42,23.424 3.353,23.361 1.22,23.238 0.001,23.169 0.001,23.169 L 0,22.677 Z"
     id="path8"
     inkscape:connector-curvature="0"
     style="fill:#00d8ff;fill-opacity:1" /><path
     d="m 79.976,45.121 c 0,0 -4.877,0.31 -12.191,0.772 -3.655,0.223 -7.921,0.482 -12.49,0.762 -4.565,0.276 -9.436,0.572 -14.306,0.867 -2.434,0.155 -4.865,0.349 -7.254,0.569 -1.196,0.103 -2.381,0.214 -3.553,0.307 -1.172,0.088 -2.329,0.166 -3.466,0.225 -2.277,0.108 -4.48,0.149 -6.57,0.147 -1.045,0.006 -2.061,-0.005 -3.044,-0.007 -0.984,-0.02 -1.932,-0.012 -2.846,-0.04 C 13.8,48.715 13.353,48.707 12.917,48.699 12.48,48.687 12.054,48.678 11.638,48.668 10.805,48.64 10.019,48.631 9.275,48.597 7.79,48.549 6.496,48.509 5.43,48.475 4.892,48.449 4.423,48.451 4.005,48.437 3.797,48.43 3.603,48.424 3.426,48.418 c -0.175,0 -0.334,0 -0.477,-0.002 C 2.377,48.418 2.063,48.408 2.063,48.408 L 1.949,47.931 c 0,0 0.284,-0.133 0.832,-0.36 0.137,-0.059 0.291,-0.127 0.46,-0.191 0.171,-0.061 0.357,-0.127 0.558,-0.199 0.403,-0.133 0.871,-0.31 1.395,-0.454 0.262,-0.079 0.539,-0.161 0.83,-0.242 0.291,-0.08 0.596,-0.173 0.914,-0.249 0.636,-0.157 1.326,-0.336 2.065,-0.495 0.369,-0.082 0.75,-0.165 1.144,-0.243 0.393,-0.078 0.798,-0.171 1.213,-0.243 0.831,-0.149 1.706,-0.314 2.62,-0.455 0.912,-0.146 1.866,-0.281 2.852,-0.418 0.493,-0.061 0.995,-0.123 1.505,-0.186 0.509,-0.066 1.027,-0.123 1.551,-0.175 2.099,-0.233 4.314,-0.408 6.609,-0.497 2.294,-0.091 4.668,-0.07 7.08,-0.024 1.205,0.022 2.42,0.045 3.639,0.066 0.305,0.006 0.61,0.011 0.916,0.017 l 0.916,0.006 c 0.611,0.006 1.223,0.01 1.834,0.016 2.445,0.019 4.89,0.036 7.296,0.055 2.405,0.016 4.774,0.072 7.065,0.119 2.291,0.052 4.506,0.094 6.605,0.16 2.1,0.064 4.085,0.127 5.917,0.184 1.832,0.059 3.512,0.129 5,0.185 1.488,0.057 2.786,0.113 3.854,0.165 2.137,0.103 3.358,0.161 3.358,0.161 l -0.001,0.487 z"
     id="path10"
     inkscape:connector-curvature="0"
     style="fill:#00d8ff;fill-opacity:1" /><path
     d="m 40.038,5.931 c 0,0 -0.138,0.037 -0.386,0.126 -0.25,0.087 -0.607,0.237 -1.039,0.458 -0.43,0.225 -0.926,0.542 -1.417,0.977 -0.483,0.44 -0.953,1.006 -1.265,1.713 -0.316,0.703 -0.476,1.533 -0.447,2.423 0.004,0.112 0.009,0.224 0.014,0.336 0.012,0.113 0.023,0.227 0.035,0.342 l 0.008,0.085 0.004,0.043 0.002,0.022 c -0.007,-0.063 0,-0.011 -10e-4,-0.022 l 0.002,0.012 0.033,0.185 0.034,0.187 c 0.011,0.061 0.02,0.132 0.038,0.173 0.031,0.095 0.062,0.191 0.09,0.287 0.031,0.097 0.081,0.198 0.12,0.297 0.035,0.104 0.094,0.193 0.146,0.287 l 0.078,0.141 0.095,0.128 c 0.25,0.344 0.567,0.635 0.945,0.845 0.377,0.21 0.809,0.339 1.26,0.387 0.903,0.089 1.879,-0.15 2.67,-0.68 0.799,-0.52 1.43,-1.294 1.808,-2.19 0.201,-0.443 0.321,-0.922 0.419,-1.402 0.032,-0.244 0.086,-0.484 0.093,-0.731 0.009,-0.123 0.019,-0.246 0.027,-0.367 C 43.411,9.87 43.406,9.746 43.408,9.624 43.409,9.508 43.41,9.393 43.411,9.278 43.402,9.147 43.394,9.016 43.385,8.886 43.375,8.761 43.372,8.619 43.357,8.508 43.342,8.394 43.329,8.28 43.314,8.168 L 43.295,7.998 43.261,7.829 C 43.239,7.717 43.216,7.604 43.195,7.493 43.169,7.385 43.134,7.281 43.105,7.174 L 43.061,7.016 C 43.043,6.965 43.023,6.916 43.004,6.867 42.721,6.057 42.206,5.469 41.549,5.184 41.222,5.035 40.863,4.967 40.512,4.941 40.161,4.915 39.815,4.928 39.489,4.971 38.836,5.054 38.263,5.209 37.799,5.36 37.338,5.517 36.974,5.658 36.732,5.764 36.489,5.869 36.36,5.931 36.36,5.931 c 0,0 0.108,-0.093 0.325,-0.249 0.219,-0.153 0.541,-0.381 0.984,-0.621 0.442,-0.238 0.998,-0.513 1.693,-0.71 0.346,-0.104 0.732,-0.171 1.151,-0.202 0.418,-0.028 0.88,0 1.351,0.141 0.47,0.138 0.939,0.403 1.332,0.77 0.394,0.367 0.713,0.827 0.938,1.32 0.029,0.062 0.063,0.123 0.088,0.186 l 0.073,0.189 c 0.047,0.128 0.099,0.256 0.141,0.386 0.037,0.13 0.073,0.262 0.11,0.394 l 0.056,0.2 0.041,0.206 c 0.027,0.138 0.056,0.278 0.082,0.417 0.027,0.143 0.036,0.261 0.055,0.393 0.017,0.129 0.032,0.259 0.05,0.389 0.009,0.147 0.018,0.295 0.026,0.444 0.062,1.13 -0.053,2.354 -0.528,3.516 -0.447,1.167 -1.29,2.236 -2.383,2.953 -1.092,0.715 -2.44,1.053 -3.746,0.881 -0.651,-0.083 -1.29,-0.3 -1.85,-0.647 -0.561,-0.343 -1.035,-0.817 -1.369,-1.355 l -0.127,-0.2 -0.103,-0.21 C 34.684,14.382 34.611,14.245 34.567,14.099 34.519,13.953 34.463,13.817 34.425,13.666 34.392,13.513 34.36,13.36 34.326,13.209 34.307,13.127 34.306,13.071 34.298,13.007 L 34.279,12.818 34.26,12.63 34.254,12.573 34.253,12.548 34.252,12.498 34.249,12.397 c -0.003,-0.134 -0.006,-0.267 -0.009,-0.399 0.006,-0.133 0.012,-0.266 0.018,-0.396 0.039,-0.525 0.112,-1.037 0.261,-1.517 0.146,-0.478 0.34,-0.926 0.578,-1.323 0.479,-0.798 1.115,-1.372 1.717,-1.77 0.609,-0.396 1.193,-0.625 1.675,-0.777 0.482,-0.153 0.875,-0.213 1.14,-0.25 0.266,-0.033 0.409,-0.034 0.409,-0.034 z"
     id="path12"
     inkscape:connector-curvature="0"
     style="fill:#00d8ff;fill-opacity:1" /><path
     d="m 43.2,31.483 c 0,0 -0.131,-0.022 -0.374,-0.052 -0.243,-0.031 -0.602,-0.061 -1.054,-0.08 -0.45,-0.017 -1,-10e-4 -1.607,0.077 -0.605,0.086 -1.275,0.247 -1.894,0.583 -0.306,0.171 -0.598,0.381 -0.852,0.64 -0.256,0.257 -0.465,0.568 -0.634,0.915 -0.175,0.342 -0.286,0.736 -0.371,1.145 -0.032,0.211 -0.074,0.418 -0.087,0.638 -0.008,0.11 -0.022,0.219 -0.028,0.33 -10e-4,0.11 -0.003,0.223 -0.005,0.336 l -0.003,0.171 -10e-4,0.042 0,0.01 c 0,-0.048 0,-0.006 0,-0.014 l 10e-4,0.022 0.005,0.092 c 0.005,0.123 0.011,0.248 0.016,0.372 0.002,0.131 0.019,0.231 0.031,0.339 0.014,0.106 0.024,0.211 0.041,0.317 0.081,0.437 0.2,0.859 0.377,1.229 0.177,0.372 0.431,0.67 0.727,0.889 0.301,0.218 0.663,0.349 1.06,0.391 0.8,0.097 1.701,-0.167 2.473,-0.607 0.776,-0.444 1.432,-1.085 1.889,-1.799 0.232,-0.358 0.392,-0.746 0.515,-1.133 l 0.043,-0.146 0.021,-0.072 0.004,-0.008 c 0.004,-0.028 -0.005,0.025 -0.002,0.016 l 0.004,-0.022 0.008,-0.042 c 0.022,-0.114 0.043,-0.228 0.065,-0.342 0.021,-0.191 0.046,-0.364 0.047,-0.565 0.019,-0.772 -0.208,-1.493 -0.599,-2.084 -0.382,-0.595 -0.885,-1.069 -1.37,-1.44 -0.487,-0.374 -0.958,-0.655 -1.356,-0.867 -0.401,-0.208 -0.726,-0.362 -0.954,-0.455 -0.225,-0.095 -0.349,-0.141 -0.349,-0.141 0,0 0.131,0.01 0.375,0.05 0.245,0.043 0.604,0.109 1.05,0.245 0.446,0.136 0.987,0.322 1.574,0.636 0.585,0.311 1.227,0.746 1.789,1.406 0.279,0.329 0.532,0.716 0.721,1.162 0.188,0.44 0.307,0.935 0.348,1.444 0.027,0.249 0.015,0.531 10e-4,0.799 -0.012,0.114 -0.024,0.229 -0.036,0.346 l -0.005,0.042 -0.002,0.022 -0.01,0.052 -0.019,0.097 -0.039,0.197 c -0.112,0.523 -0.303,1.044 -0.57,1.531 -0.266,0.486 -0.604,0.941 -0.994,1.352 -0.101,0.101 -0.196,0.207 -0.304,0.3 -0.106,0.095 -0.213,0.191 -0.323,0.284 -0.114,0.086 -0.229,0.173 -0.345,0.259 -0.118,0.083 -0.241,0.159 -0.363,0.237 -0.496,0.305 -1.037,0.556 -1.622,0.711 -0.583,0.156 -1.21,0.231 -1.853,0.158 -0.638,-0.072 -1.292,-0.308 -1.832,-0.71 -0.541,-0.4 -0.941,-0.949 -1.194,-1.511 -0.256,-0.563 -0.385,-1.141 -0.458,-1.7 -0.015,-0.143 -0.023,-0.287 -0.033,-0.431 -0.01,-0.145 -0.022,-0.291 -0.017,-0.408 0.002,-0.124 0.003,-0.249 0.005,-0.372 l 10e-4,-0.093 10e-4,-0.023 0,-0.038 0.001,-0.013 0.004,-0.048 0.016,-0.199 c 0.011,-0.131 0.022,-0.262 0.032,-0.393 0.016,-0.131 0.04,-0.262 0.059,-0.393 0.031,-0.257 0.102,-0.515 0.165,-0.767 0.15,-0.5 0.327,-0.993 0.607,-1.428 0.271,-0.434 0.594,-0.83 0.976,-1.13 0.379,-0.302 0.786,-0.528 1.19,-0.687 0.816,-0.308 1.59,-0.367 2.253,-0.352 0.665,0.022 1.228,0.124 1.682,0.229 0.454,0.104 0.798,0.227 1.031,0.31 0.231,0.085 0.351,0.142 0.351,0.142 z"
     id="path14"
     inkscape:connector-curvature="0"
     style="fill:#00d8ff;fill-opacity:1" /><path
     d="m 65.327,6.195 c 0,0 -0.129,0.02 -0.366,0.064 -0.237,0.042 -0.584,0.119 -1.019,0.223 -0.434,0.105 -0.953,0.257 -1.527,0.466 -0.288,0.105 -0.589,0.223 -0.895,0.368 -0.155,0.068 -0.305,0.152 -0.463,0.228 -0.149,0.09 -0.312,0.168 -0.46,0.271 -0.61,0.381 -1.195,0.89 -1.578,1.535 -0.196,0.32 -0.322,0.68 -0.402,1.057 -0.016,0.096 -0.032,0.191 -0.048,0.288 -0.006,0.099 -0.013,0.199 -0.019,0.299 -0.002,0.05 -0.01,0.099 -0.008,0.15 l 0.008,0.154 c 0.006,0.103 0.005,0.205 0.017,0.309 0.015,0.104 0.031,0.209 0.046,0.315 l 0.023,0.158 0.037,0.16 c 0.024,0.106 0.049,0.213 0.073,0.321 0.025,0.107 0.066,0.214 0.099,0.321 0.031,0.099 0.063,0.198 0.095,0.298 l 0.069,0.173 0.035,0.087 0.018,0.044 0.016,0.031 c 0.047,0.081 0.072,0.16 0.13,0.248 l 0.074,0.128 c 0.026,0.042 0.057,0.08 0.084,0.12 0.222,0.321 0.511,0.553 0.839,0.713 0.331,0.159 0.719,0.23 1.13,0.225 0.412,-0.006 0.843,-0.082 1.263,-0.223 0.421,-0.137 0.835,-0.325 1.224,-0.554 0.776,-0.458 1.464,-1.064 1.971,-1.746 0.255,-0.34 0.458,-0.703 0.612,-1.068 0.147,-0.368 0.232,-0.743 0.257,-1.11 C 66.716,9.512 66.474,8.812 66.093,8.232 65.708,7.653 65.215,7.184 64.738,6.815 64.26,6.445 63.805,6.151 63.417,5.934 63.225,5.82 63.047,5.729 62.895,5.645 62.742,5.56 62.608,5.494 62.499,5.441 62.283,5.331 62.167,5.273 62.167,5.273 c 0,0 0.127,0.027 0.364,0.08 0.119,0.027 0.266,0.061 0.435,0.109 0.171,0.045 0.368,0.099 0.583,0.176 0.436,0.141 0.96,0.339 1.533,0.648 0.289,0.152 0.584,0.342 0.887,0.561 0.299,0.226 0.596,0.493 0.878,0.812 0.278,0.321 0.529,0.704 0.72,1.142 0.191,0.438 0.309,0.936 0.326,1.452 0.021,0.516 -0.061,1.044 -0.214,1.553 -0.158,0.508 -0.401,0.991 -0.691,1.444 -0.29,0.456 -0.645,0.87 -1.036,1.252 -0.195,0.193 -0.404,0.371 -0.619,0.546 -0.221,0.167 -0.446,0.331 -0.685,0.478 -0.476,0.296 -0.984,0.557 -1.537,0.738 -0.549,0.187 -1.139,0.306 -1.754,0.318 -0.615,0.004 -1.265,-0.111 -1.855,-0.401 C 58.91,15.895 58.407,15.429 58.067,14.91 58.024,14.845 57.979,14.781 57.94,14.715 L 57.831,14.514 C 57.755,14.387 57.693,14.228 57.63,14.085 L 57.608,14.031 57.592,13.987 57.562,13.899 57.5,13.722 57.486,13.684 57.482,13.672 57.476,13.648 57.462,13.599 57.436,13.5 57.383,13.304 c -0.149,-0.518 -0.225,-1.063 -0.255,-1.604 -0.005,-0.136 0.003,-0.274 0.005,-0.41 l 0.005,-0.203 c 0.002,-0.067 0.015,-0.136 0.022,-0.204 0.018,-0.136 0.034,-0.271 0.055,-0.404 0.033,-0.132 0.066,-0.264 0.101,-0.396 0.156,-0.516 0.378,-1.009 0.688,-1.415 0.308,-0.405 0.653,-0.753 1.026,-1.024 0.373,-0.266 0.747,-0.495 1.124,-0.658 0.747,-0.347 1.467,-0.522 2.099,-0.644 0.634,-0.118 1.19,-0.159 1.646,-0.179 0.455,-0.023 0.814,-0.006 1.057,0.004 0.242,0.011 0.371,0.028 0.371,0.028 z"
     id="path16"
     inkscape:connector-curvature="0"
     style="fill:#00d8ff;fill-opacity:1" /><path
     d="m 45.439,51.635 c 0,0 -0.026,0.049 -0.08,0.137 -0.054,0.087 -0.13,0.22 -0.234,0.379 -0.206,0.319 -0.515,0.762 -0.909,1.269 -0.393,0.508 -0.873,1.077 -1.411,1.66 -0.132,0.146 -0.271,0.294 -0.413,0.44 -0.14,0.147 -0.284,0.298 -0.432,0.442 -0.292,0.298 -0.599,0.588 -0.904,0.88 -0.312,0.283 -0.622,0.571 -0.938,0.841 -0.156,0.139 -0.313,0.271 -0.472,0.4 -0.157,0.131 -0.311,0.261 -0.467,0.384 -0.62,0.495 -1.221,0.936 -1.754,1.292 -0.532,0.357 -0.996,0.636 -1.33,0.818 -0.166,0.093 -0.303,0.159 -0.394,0.207 -0.092,0.047 -0.143,0.068 -0.143,0.068 0,0 0.025,-0.048 0.078,-0.137 0.054,-0.086 0.129,-0.219 0.233,-0.378 0.207,-0.32 0.515,-0.765 0.908,-1.271 0.394,-0.507 0.874,-1.076 1.412,-1.66 0.133,-0.148 0.273,-0.291 0.414,-0.44 0.14,-0.148 0.284,-0.296 0.432,-0.442 0.292,-0.296 0.6,-0.585 0.905,-0.877 0.312,-0.284 0.623,-0.571 0.938,-0.841 0.156,-0.137 0.314,-0.27 0.472,-0.4 0.156,-0.131 0.311,-0.26 0.468,-0.383 0.619,-0.496 1.221,-0.935 1.753,-1.293 0.533,-0.358 0.996,-0.634 1.33,-0.819 0.165,-0.092 0.303,-0.158 0.393,-0.207 0.093,-0.047 0.145,-0.069 0.145,-0.069 z"
     id="path18"
     inkscape:connector-curvature="0"
     style="fill:#00d8ff;fill-opacity:1" /><path
     d="m 45.439,60.853 c 0,0 -0.052,-0.021 -0.144,-0.068 -0.09,-0.048 -0.228,-0.114 -0.393,-0.207 -0.334,-0.185 -0.797,-0.463 -1.33,-0.82 -0.532,-0.356 -1.134,-0.795 -1.753,-1.292 -0.157,-0.123 -0.312,-0.251 -0.468,-0.382 -0.158,-0.131 -0.316,-0.264 -0.472,-0.4 -0.316,-0.271 -0.626,-0.558 -0.938,-0.841 -0.306,-0.292 -0.613,-0.582 -0.905,-0.88 -0.148,-0.145 -0.292,-0.293 -0.432,-0.44 -0.141,-0.148 -0.281,-0.294 -0.414,-0.44 -0.538,-0.583 -1.018,-1.152 -1.412,-1.659 -0.393,-0.508 -0.701,-0.952 -0.908,-1.271 -0.104,-0.159 -0.179,-0.292 -0.233,-0.379 -0.053,-0.088 -0.078,-0.137 -0.078,-0.137 0,0 0.05,0.022 0.143,0.068 0.09,0.049 0.228,0.113 0.394,0.207 0.334,0.184 0.797,0.461 1.33,0.819 0.533,0.355 1.135,0.795 1.754,1.291 0.156,0.123 0.31,0.254 0.467,0.383 0.159,0.131 0.315,0.264 0.472,0.402 0.316,0.27 0.625,0.557 0.938,0.841 0.306,0.292 0.612,0.581 0.904,0.879 0.147,0.145 0.292,0.294 0.432,0.442 0.142,0.147 0.281,0.292 0.413,0.441 0.538,0.583 1.019,1.152 1.411,1.659 0.395,0.507 0.703,0.949 0.909,1.27 0.104,0.159 0.181,0.292 0.234,0.378 0.053,0.088 0.079,0.136 0.079,0.136 z"
     id="path20"
     inkscape:connector-curvature="0"
     style="fill:#00d8ff;fill-opacity:1" /><path
     d="m 6.19,30.166 c 0,0 0.054,0.018 0.153,0.055 0.098,0.04 0.246,0.093 0.424,0.17 0.362,0.153 0.867,0.385 1.452,0.693 0.586,0.307 1.251,0.689 1.943,1.126 0.174,0.108 0.348,0.223 0.523,0.338 0.176,0.115 0.354,0.233 0.529,0.356 0.355,0.241 0.707,0.497 1.059,0.752 0.347,0.264 0.696,0.525 1.029,0.795 0.169,0.131 0.334,0.266 0.495,0.402 0.162,0.135 0.323,0.266 0.476,0.4 0.621,0.535 1.18,1.061 1.644,1.531 0.464,0.47 0.833,0.887 1.084,1.188 0.126,0.149 0.219,0.275 0.286,0.358 0.065,0.082 0.098,0.131 0.098,0.131 0,0 -0.055,-0.019 -0.154,-0.057 C 17.133,38.366 16.985,38.313 16.806,38.235 16.444,38.083 15.939,37.851 15.354,37.543 14.768,37.237 14.103,36.855 13.412,36.417 13.237,36.311 13.065,36.193 12.889,36.079 12.712,35.964 12.536,35.846 12.36,35.721 12.005,35.482 11.654,35.224 11.302,34.967 10.955,34.705 10.606,34.444 10.273,34.174 10.104,34.041 9.94,33.906 9.779,33.772 9.617,33.637 9.457,33.504 9.303,33.37 8.682,32.835 8.124,32.309 7.659,31.838 7.195,31.367 6.826,30.952 6.575,30.651 6.448,30.501 6.355,30.376 6.288,30.294 6.222,30.213 6.19,30.166 6.19,30.166 Z"
     id="path22"
     inkscape:connector-curvature="0"
     style="fill:#00d8ff;fill-opacity:1" /><path
     d="m 16.463,29.376 c 0,0 -0.023,0.054 -0.067,0.156 -0.047,0.1 -0.11,0.25 -0.202,0.434 -0.18,0.369 -0.452,0.883 -0.806,1.479 -0.353,0.595 -0.788,1.271 -1.282,1.974 -0.122,0.178 -0.25,0.353 -0.38,0.531 -0.129,0.179 -0.261,0.358 -0.399,0.537 -0.27,0.36 -0.556,0.717 -0.84,1.072 -0.292,0.353 -0.581,0.706 -0.879,1.042 -0.146,0.171 -0.294,0.338 -0.443,0.501 -0.148,0.163 -0.293,0.326 -0.442,0.481 -0.586,0.627 -1.16,1.19 -1.671,1.657 -0.511,0.467 -0.96,0.837 -1.285,1.089 -0.161,0.126 -0.295,0.219 -0.383,0.285 -0.089,0.066 -0.14,0.099 -0.14,0.099 0,0 0.021,-0.057 0.067,-0.157 0.046,-0.101 0.11,-0.251 0.202,-0.435 0.18,-0.368 0.451,-0.883 0.805,-1.479 0.353,-0.596 0.788,-1.271 1.281,-1.974 0.122,-0.177 0.251,-0.352 0.381,-0.531 0.129,-0.179 0.262,-0.357 0.399,-0.537 0.269,-0.359 0.556,-0.714 0.841,-1.072 0.292,-0.352 0.582,-0.704 0.88,-1.04 0.146,-0.171 0.295,-0.338 0.444,-0.501 0.147,-0.163 0.293,-0.325 0.442,-0.48 0.587,-0.626 1.161,-1.191 1.671,-1.658 0.511,-0.468 0.959,-0.838 1.284,-1.09 0.16,-0.127 0.295,-0.22 0.383,-0.286 0.09,-0.064 0.139,-0.097 0.139,-0.097 z"
     id="path24"
     inkscape:connector-curvature="0"
     style="fill:#00d8ff;fill-opacity:1" /></svg>